<?xml version="1.0" encoding="UTF-8"?> <svg xmlns="http://www.w3.org/2000/svg" viewBox="0 0 137.2 137.2"><defs><style>.cls-1{fill:#93bb3b;}</style></defs><title>icon-consumers</title><g id="Layer_2" data-name="Layer 2"><g id="Layer_1-2" data-name="Layer 1"><path class="cls-1" d="M61.82,43.88a.41.41,0,0,0-.38.38.39.39,0,0,0,.38.38h.76a.36.36,0,0,0,.38-.38.41.41,0,0,0-.38-.38Z"></path><path class="cls-1" d="M67.66,43.88a.41.41,0,0,0-.38.38.39.39,0,0,0,.38.38h1.89a.39.39,0,0,0,.38-.38.41.41,0,0,0-.38-.38Z"></path><path class="cls-1" d="M88.68,38.68A20.08,20.08,0,1,0,68.6,58.76,20.07,20.07,0,0,0,88.68,38.68ZM74.36,50.43a.76.76,0,0,1-.76.76H63.68a.76.76,0,0,1-.76-.76v-.76a.76.76,0,0,1,.76-.75h1.44l.6-1.9h5.76l.61,1.9h1.47a.82.82,0,0,1,.8.75Zm6.36-5.3a1.14,1.14,0,0,1-1.13,1.13h-22a1.16,1.16,0,0,1-1.14-1.13V29.41a1.14,1.14,0,0,1,1.14-1.14h22a1.14,1.14,0,0,1,1.13,1.14Z"></path><path class="cls-1" d="M59.17,43.88a.41.41,0,0,0-.38.38.36.36,0,0,0,.38.38h.76a.36.36,0,0,0,.38-.38.38.38,0,0,0-.38-.38Z"></path><path class="cls-1" d="M58.42,29.51a.33.33,0,0,0-.35.36V41.76H79.13V29.87a.33.33,0,0,0-.35-.36Zm1.65,7.13h1.48a.35.35,0,0,1,0,.7H60.07a.35.35,0,0,1-.35-.35A.33.33,0,0,1,60.07,36.64Zm-.35-2.32a.33.33,0,0,1,.35-.35h1.48a.35.35,0,0,1,0,.7H60.07A.38.38,0,0,1,59.72,34.32Zm2.88,5.73H60.07a.34.34,0,0,1-.35-.36.33.33,0,0,1,.35-.35H62.6a.33.33,0,0,1,.35.35A.34.34,0,0,1,62.6,40.05Zm0-8.08H60.07a.35.35,0,1,1,0-.7H62.6a.35.35,0,0,1,.35.35A.33.33,0,0,1,62.6,32Zm14.53,8.08H74.61a.34.34,0,0,1-.36-.36.33.33,0,0,1,.36-.35h2.52a.35.35,0,0,1,.35.35A.34.34,0,0,1,77.13,40.05Zm0-2.71H75.66a.35.35,0,1,1,0-.7h1.47a.38.38,0,0,1,.35.35A.33.33,0,0,1,77.13,37.34Zm0-2.67H75.66a.35.35,0,1,1,0-.7h1.47a.35.35,0,0,1,.35.35A.33.33,0,0,1,77.13,34.67Zm0-2.7H74.61a.35.35,0,1,1,0-.7h2.52a.38.38,0,0,1,.35.35A.33.33,0,0,1,77.13,32Z"></path><path class="cls-1" d="M103.92,54.34a.38.38,0,0,0,.39-.38.39.39,0,0,0-.39-.39h-2.77a.36.36,0,0,0-.38.39.38.38,0,0,0,.38.38Z"></path><rect class="cls-1" x="97.34" y="55.57" width="10.39" height="15.21"></rect><path class="cls-1" d="M102.5,71.94a1.12,1.12,0,1,0,1.11,1.11A1.12,1.12,0,0,0,102.5,71.94Z"></path><path class="cls-1" d="M102.52,43.81A20.08,20.08,0,1,0,122.6,63.89,20.08,20.08,0,0,0,102.52,43.81Zm6.75,29.94a1.64,1.64,0,0,1-1.65,1.65H97.42a1.64,1.64,0,0,1-1.66-1.65V54a1.64,1.64,0,0,1,1.66-1.65h10.24A1.58,1.58,0,0,1,109.27,54Z"></path><path class="cls-1" d="M34.56,43.81A20.08,20.08,0,1,0,54.64,63.89,20.07,20.07,0,0,0,34.56,43.81ZM50.71,61.5a.6.6,0,0,1-.6.6H44.73v1.19h5.38a.6.6,0,0,1,0,1.2H44.73v1.19h5.38a.6.6,0,0,1,0,1.2H44.73v1.79a.6.6,0,0,1-.6.6H42.34v1.8a.59.59,0,0,1-.6.59H40v1.8a.6.6,0,0,1-.6.6h-1.8v5.38a.6.6,0,1,1-1.19,0V74.06h-1.2v5.38a.6.6,0,1,1-1.2,0V74.06H32.77v5.38a.6.6,0,0,1-1.2,0V74.06H29.78a.6.6,0,0,1-.6-.6v-1.8H27.39a.59.59,0,0,1-.6-.59v-1.8H25a.59.59,0,0,1-.6-.6V66.88H19a.6.6,0,0,1,0-1.2H24.4V64.49H19a.6.6,0,0,1,0-1.2H24.4V62.1H19a.6.6,0,1,1,0-1.2H24.4V59.11a.6.6,0,0,1,.6-.6h1.79v-1.8a.59.59,0,0,1,.6-.59h1.79v-1.8a.6.6,0,0,1,.6-.6h1.79V48.34a.6.6,0,0,1,1.2,0v5.38H34V48.34a.6.6,0,0,1,1.2,0v5.38h1.2V48.34a.6.6,0,1,1,1.19,0v5.38h1.8a.6.6,0,0,1,.6.6v1.8h1.79a.59.59,0,0,1,.6.59v1.8h1.79a.6.6,0,0,1,.6.6V60.9h5.38A.6.6,0,0,1,50.71,61.5Z"></path><path class="cls-1" d="M68.6,0a68.6,68.6,0,1,0,68.6,68.6A68.67,68.67,0,0,0,68.6,0ZM99.21,118.87a14.08,14.08,0,0,0-8.61-5.72l-16.43-3.28v-8.12a1.4,1.4,0,0,1,.7-1.21,15.34,15.34,0,0,0,7.66-13.28v-4c0-7.83-6-14.39-13.49-14.61A13.92,13.92,0,0,0,54.68,82.52v4.73a15.36,15.36,0,0,0,7.66,13.29h0a1.39,1.39,0,0,1,.69,1.2v8.12l-16.42,3.29A14,14,0,0,0,38,118.87a59.07,59.07,0,1,1,61.21,0Z"></path></g></g></svg> 