<?xml version="1.0" encoding="UTF-8"?> <svg xmlns="http://www.w3.org/2000/svg" viewBox="0 0 137.19 137.2"><defs><style>.cls-1{fill:#93bb3b;}</style></defs><title>icon-recyclers</title><g id="Layer_2" data-name="Layer 2"><g id="Layer_1-2" data-name="Layer 1"><path class="cls-1" d="M68.6,0a68.6,68.6,0,1,0,68.59,68.6A68.67,68.67,0,0,0,68.6,0ZM48.94,124.06c-.76-.28-1.57-.43-2.32-.73a6.63,6.63,0,0,0,.14-.94V91.91H48.7v30.48A8.5,8.5,0,0,0,48.94,124.06Zm29.64-3.23a5.7,5.7,0,0,1-1-11.31,5.2,5.2,0,0,1,1-.09,5.7,5.7,0,1,1,0,11.4Zm1.54-13.07L76.77,80h33.08l-4,34.12a57.26,57.26,0,0,1-6.92,5H85.09l.1-.16c.07-.12.13-.25.2-.38s.1-.2.14-.3.12-.27.17-.41.08-.21.11-.31.09-.3.13-.46.06-.2.08-.3.06-.35.08-.52a2.34,2.34,0,0,0,0-.26A7.41,7.41,0,0,0,80.12,107.76Zm27.41-34.09A2.32,2.32,0,0,1,109.85,76v.77h-34V76a2.32,2.32,0,0,1,2.32-2.32ZM79.69,70.34V68.69h23.82a2.47,2.47,0,0,1,2.32,1.65ZM109,111.49,111.77,80h2.93a1,1,0,0,0,1-1v-3.8a4.76,4.76,0,0,0-4.75-4.76h-1.05a4.76,4.76,0,0,0-4.66-3.8H76.89a2.84,2.84,0,0,0-5,1.9v2.88A4.76,4.76,0,0,0,70,75.22V79a1,1,0,0,0,1,1h2.93l2.53,27.87a7.6,7.6,0,0,0,2.14,14.89H92.1a58.32,58.32,0,0,1-35.69,3.65,6.78,6.78,0,0,0,1.16-4V71.81H60V92.34a4.33,4.33,0,1,0,8.65,0V69.43A12.88,12.88,0,0,0,55.84,56.25H41A12.88,12.88,0,0,0,28.21,69.43V92.34a4.33,4.33,0,1,0,8.65,0V71.81h1.46v47.24A59,59,0,1,1,109,111.49ZM75.73,68.56v1.9h-1.9v-1.9a1,1,0,0,1,1.9,0Z"></path><path class="cls-1" d="M46.46,30.76a11,11,0,1,0,11,11A11,11,0,0,0,46.46,30.76Z"></path><path class="cls-1" d="M90.44,89.52a1,1,0,0,0,1.31-.31l1.09-1.75,3.63,5.81H94.74a1,1,0,0,0,0,1.9h3.8a.93.93,0,0,0,.92-.72l1-3.8a.93.93,0,0,0-.7-1.14.94.94,0,0,0-1.14.68l-.51,2-4.41-7.06a1,1,0,0,0-1.38-.24.91.91,0,0,0-.24.24l-1.9,3a1,1,0,0,0,.3,1.31Z"></path><path class="cls-1" d="M88.09,100.88a1,1,0,0,0-1-.95H85.05l3.5-5.61.51,2a.94.94,0,0,0,.93.71.86.86,0,0,0,.23,0,1,1,0,0,0,.69-1.16l-1-3.8a1,1,0,0,0-.92-.72h-3.8a1,1,0,0,0,0,1.9H87l-4.44,7.1a1,1,0,0,0,.3,1.31.92.92,0,0,0,.51.15h3.8A1,1,0,0,0,88.09,100.88Z"></path><path class="cls-1" d="M99.91,97.23a1,1,0,0,0-.26,1.32l.92,1.38H93.23l1.23-1.23a1,1,0,0,0,0-1.35,1,1,0,0,0-1.32,0l-2.85,2.85a1,1,0,0,0,0,1.35l2.85,2.85a1,1,0,0,0,1.34-1.35l-1.23-1.22h9.11a1,1,0,0,0,1-1,.9.9,0,0,0-.16-.53l-1.9-2.85a.94.94,0,0,0-1.31-.27Z"></path><path class="cls-1" d="M78.58,112.28a2.85,2.85,0,1,0,2.86,2.85A2.86,2.86,0,0,0,78.58,112.28Zm0,3.8a1,1,0,1,1,1-1A.95.95,0,0,1,78.58,116.08Z"></path></g></g></svg> 