<?xml version="1.0" encoding="UTF-8"?> <svg xmlns="http://www.w3.org/2000/svg" viewBox="0 0 137.19 137.2"><defs><style>.cls-1{fill:#93bb3b;}</style></defs><title>icon-collection-center</title><g id="Layer_2" data-name="Layer 2"><g id="Layer_1-2" data-name="Layer 1"><path class="cls-1" d="M68.6,0a68.6,68.6,0,1,0,68.59,68.6A68.67,68.67,0,0,0,68.6,0ZM33.45,60.77v53.15H31.18A58.28,58.28,0,0,1,11,55.67l.44.86a2.21,2.21,0,0,0,3,1l3.29-1.69L19,58.32l.91-.46.07.14a6,6,0,0,0,10.64-5.45l-3.91-7.63a2.42,2.42,0,0,1,4.3-2.2l5.64,11-.66.34a2.26,2.26,0,0,0-1,3v0A4.49,4.49,0,0,0,33.45,60.77Zm31.68,45.72-24.75.65v-6.23L65.13,99Zm0-14.92L40.38,94.81V88.6l24.75-4.53Zm0-14.91L40.38,82.48V76.29l24.75-7.11Zm0-14.91-24.75,8.4v-6l24.75-9.64ZM74.25,46l4.51-14.38a.54.54,0,0,0-.35-.6L49.32,21.86a.44.44,0,0,0-.59.3l-5.67,18.1a.43.43,0,0,0,.3.58l18.1,5.68-1.39.54L41.44,41.21,48,20.36,80.36,30.52l-5,15.88ZM58.69,47.6l-1.87.73L55.6,48a.43.43,0,0,0-.58.3.44.44,0,0,0,.3.58l.11,0-1.94.75L41.1,45.73a4,4,0,0,1-2.69-4.49l2.35.73ZM81.9,90h-2a4.32,4.32,0,0,1-3.83-2.65,5.91,5.91,0,0,1,.1-5.22c.67-1.29,1.15-2.19,2.08-4l.23-.43-2.15.68a.62.62,0,0,1-.76-.52A.75.75,0,0,1,76,77l3.62-1.14a.62.62,0,0,1,.76.52l1,4.26a.76.76,0,0,1-.44.9.63.63,0,0,1-.77-.52l-.58-2.57-.25.49c-.94,1.78-1.41,2.69-2.09,4a4.24,4.24,0,0,0-.07,3.74,3.08,3.08,0,0,0,2.74,1.89h2a.75.75,0,0,1,0,1.47Zm2.59-40.32c-.21-.14-.15-.49,0-.7L94.8,33.26c.14-.21.28-.16.49,0l10.92,7.17c.21.13.43.32.29.53l-9.19,14-5.8-2.23-6-2.36ZM99.11,32.75c.21-.25.64-.44.88-.29l5,3.26a.71.71,0,0,1,.09.91c-.18.27-.6.47-.87.29l-5-3.26A.71.71,0,0,1,99.11,32.75ZM83.68,70.63l-1.12,2.13a.57.57,0,0,1-.86.24.79.79,0,0,1-.2-1l1.12-2.13A4,4,0,0,1,90,69.8l.08.16c1.23,2.28,1.23,2.28,2.26,4.17l.45.83.6-2.62a.62.62,0,0,1,.76-.52.76.76,0,0,1,.44.9l-1,4.26a.62.62,0,0,1-.76.52l-3.62-1.14a.76.76,0,0,1-.44-.9.61.61,0,0,1,.76-.52l2.09.65-.37-.67L89,70.75l-.09-.16a2.87,2.87,0,0,0-5.25,0ZM96.47,87.37A4.31,4.31,0,0,1,92.65,90H87.78l1.58,1.86a.84.84,0,0,1,0,1,.55.55,0,0,1-.88,0L85.83,89.8a.81.81,0,0,1,0-1l2.65-3.12a.55.55,0,0,1,.88,0,.84.84,0,0,1,0,1l-1.58,1.86h4.87a3.08,3.08,0,0,0,2.73-1.89,4.22,4.22,0,0,0-.07-3.73l-.7-1.34a.82.82,0,0,1,.2-1,.57.57,0,0,1,.86.24l.7,1.34A5.91,5.91,0,0,1,96.47,87.37ZM106,113.92h-2.28V60.77a4.49,4.49,0,0,0-2.47-4.29L100,56l10.24-15.59a3.18,3.18,0,0,0-.91-4.36L97.54,28.29a3.18,3.18,0,0,0-4.36.91L80.57,48.42l-3.92-1.53-.4-.15,5.14-16.38a.45.45,0,0,0-.31-.59L47.82,19.34a.45.45,0,0,0-.59.3L40.55,40.93,38.2,40.2a.43.43,0,0,0-.58.3,4.88,4.88,0,0,0,3.2,6.12l11.29,3.54L41.53,54.29l-.22-.43a2.19,2.19,0,0,0-3-1l-.72.36L32,42.25a3.48,3.48,0,0,0-6.2,3.18l3.91,7.63A4.91,4.91,0,0,1,21,57.54l-.1-.19.91-.47L20.51,54.4l3.29-1.69a2.25,2.25,0,0,0,.93-3l-3.35-6.54-7.81,4c.2-.51.39-1,.6-1.51l4.48-2.3-.91-1.76-1.16-1A59,59,0,1,1,106,113.92Z"></path></g></g></svg> 