<?xml version="1.0" encoding="UTF-8"?> <svg xmlns="http://www.w3.org/2000/svg" viewBox="0 0 137.19 137.2"><defs><style>.cls-1,.cls-2,.cls-3{fill:#93bb3b;}.cls-2,.cls-3{stroke:#fff;stroke-miterlimit:10;}.cls-3{stroke-width:0.1px;}</style></defs><title>icon-pro</title><g id="Layer_2" data-name="Layer 2"><g id="Layer_1-2" data-name="Layer 1"><path class="cls-1" d="M68.6,137.2a68.6,68.6,0,1,1,68.59-68.6A68.67,68.67,0,0,1,68.6,137.2Zm0-127.67A59.07,59.07,0,1,0,127.66,68.6,59.14,59.14,0,0,0,68.6,9.53Z"></path><path class="cls-2" d="M98.73,65.51c-21.2-11.75-41.45-7.27-46.27-6.75L48.84,55l-.34-.34a3.26,3.26,0,0,0-1.38-.35,2.6,2.6,0,0,0-1.72.52l-17.9,17a.85.85,0,0,0,0,1.21c.38.44,1.55.51,1.72.51l27.2.52c0-3.06-.67-4.78-.63-5.77a.69.69,0,0,1,.56-.73c26-6,33.89,5.87,33.89,5.87Z"></path><ellipse class="cls-1" cx="68.6" cy="118.82" rx="41.35" ry="11.86"></ellipse><circle class="cls-1" cx="66.57" cy="31.06" r="14.12"></circle><path class="cls-3" d="M89.71,61.62A13.47,13.47,0,0,0,76.38,47.83H60.82A13.47,13.47,0,0,0,47.48,61.62V85.57a4.53,4.53,0,1,0,9,0V64.11h2.26V98.23h0V117c0,8.36,8.09,8.13,8.09,0V98.23h0V85.12h2V98.23h0V117c0,8.36,9.27,8.13,9.27,0V98.23h0V64.11h2.49V85.57a4.53,4.53,0,1,0,9,0V61.62Z"></path><path class="cls-2" d="M26.77,75.47c.17.51-6.89,15.28,15.08,29.43l-4,3.61a.85.85,0,0,0,0,1.21l.35.34a3.25,3.25,0,0,0,1.37.35l34.43.51c.69,0,1.47-.1,1.72-.51a1,1,0,0,0,0-1L59.41,91.82l-.35-.35a3.25,3.25,0,0,0-1.37-.34,2.58,2.58,0,0,0-1.72.51l-3.1,2.93C36.61,89,39.34,79.63,42.1,75.79Z"></path><path class="cls-2" d="M80,109.66c2.06-.86,22.82-3.18,31.12-23.48l7.23.17a2.53,2.53,0,0,0,1.72-.52.82.82,0,0,0,0-1.2L103.72,67.07l-.34-.35a3.3,3.3,0,0,0-1.38-.34,3,3,0,0,0-1.72.52L82.38,83.77a.82.82,0,0,0,0,1.2l.34.35a3.3,3.3,0,0,0,1.38.34l9.11.3C87.39,98.74,68.94,97.23,68.6,97.4Z"></path></g></g></svg> 