<?xml version="1.0" encoding="UTF-8"?> <svg xmlns="http://www.w3.org/2000/svg" viewBox="0 0 137.2 137.2"><defs><style>.cls-1{fill:none;}.cls-2{fill:#93bb3b;}.cls-3{fill:#fff;}</style></defs><title>icon-producers</title><g id="Layer_2" data-name="Layer 2"><g id="Layer_1-2" data-name="Layer 1"><path class="cls-1" d="M76,121.8v5.12c1.44-.18,2.94-.15,4.35-.44V121.8Z"></path><path class="cls-1" d="M84.69,121.8v3.36c1.47-.42,2.94-.83,4.36-1.36v-2Z"></path><polygon class="cls-1" points="84.4 54.7 97 54.7 84.4 42.1 84.4 54.7"></polygon><path class="cls-1" d="M49.82,121.8v2.52c1.44.49,2.88,1,4.36,1.36V121.8Z"></path><path class="cls-1" d="M43.39,121.8c.72.34,1.35.81,2.07,1.13V121.8Z"></path><path class="cls-1" d="M58.54,121.8v4.85c1.42.25,2.9.3,4.36.44V121.8Z"></path><path class="cls-1" d="M67.26,121.8v5.73c.46,0,.89.14,1.35.14,1,0,2-.26,3-.31V121.8Z"></path><path class="cls-1" d="M68.61,9.53A58.95,58.95,0,0,0,37.13,118.4v-48H32.77V36.84A2.19,2.19,0,0,1,35,34.66H82.26l.39,0h0l.36.11.11,0,.24.13.1.07a1.51,1.51,0,0,1,.28.22l0,0,20,20,0,0a3,3,0,0,1,.22.28.61.61,0,0,1,.07.1,1.34,1.34,0,0,1,.12.24l.06.11c0,.11.07.22.1.33a.13.13,0,0,0,0,.06,2,2,0,0,1,0,.35s0,0,0,.05v58.36A58.85,58.85,0,0,0,68.61,9.53ZM37.13,111.34H32.77V107h4.36Zm0-10.24H32.77V96.74h4.36Zm0-10.24H32.77V86.5h4.36Zm0-14.6v4.36H32.77V76.26Z"></path><rect class="cls-1" x="100.08" y="59.06" height="59.34"></rect><polygon class="cls-2" points="100.07 121.8 100.07 118.4 100.07 118.4 100.07 121.8"></polygon><path class="cls-2" d="M68.61,0A68.6,68.6,0,1,0,137.2,68.6,68.68,68.68,0,0,0,68.61,0ZM37.13,126.16H32.77V121.8h4.36Zm67.3-10.92V124a2.18,2.18,0,0,1-2.18,2.18H89.05V123.8c-1.42.53-2.89.94-4.36,1.36v4.52H80.33v-3.2c-1.41.29-2.91.26-4.35.44v2.76H71.62v-2.32c-1,0-2,.31-3,.31-.46,0-.89-.13-1.35-.14v2.15H62.9v-2.59c-1.46-.14-2.94-.19-4.36-.44v3H54.18v-4c-1.48-.38-2.92-.87-4.36-1.36v1.84H45.46v-3.23c-.72-.32-1.35-.79-2.07-1.13H37.13v-3.4a59.17,59.17,0,1,1,67.3-3.16Z"></path><polygon class="cls-2" points="80.33 121.8 80.33 126.48 80.33 129.68 84.69 129.68 84.69 125.16 84.69 121.8 80.33 121.8"></polygon><path class="cls-2" d="M104.43,56.83a2,2,0,0,0,0-.35.13.13,0,0,1,0-.06c0-.11-.07-.22-.1-.33l-.06-.11a1.34,1.34,0,0,0-.12-.24.61.61,0,0,0-.07-.1,3,3,0,0,0-.22-.28l0,0-20-20,0,0a1.51,1.51,0,0,0-.28-.22l-.1-.07-.24-.13-.11,0-.36-.11h0l-.39,0H35a2.19,2.19,0,0,0-2.18,2.18V70.38h4.36V39h43.2L80,56.88h20v2.18h0V121.8h-11v4.36h13.2a2.18,2.18,0,0,0,2.18-2.18V56.88S104.43,56.85,104.43,56.83Zm-20-2.13V42.1L97,54.7Z"></path><polygon class="cls-2" points="62.9 121.8 62.9 127.09 62.9 129.68 67.26 129.68 67.26 127.53 67.26 121.8 62.9 121.8"></polygon><polygon class="cls-2" points="54.18 121.8 54.18 125.68 54.18 129.68 58.54 129.68 58.54 126.65 58.54 121.8 54.18 121.8"></polygon><polygon class="cls-2" points="45.46 121.8 45.46 122.92 45.46 126.16 49.82 126.16 49.82 124.32 49.82 121.8 45.46 121.8"></polygon><rect class="cls-2" x="32.77" y="76.26" width="4.36" height="4.36"></rect><polygon class="cls-2" points="71.62 121.8 71.62 127.36 71.62 129.68 75.97 129.68 75.97 126.92 75.97 121.8 71.62 121.8"></polygon><rect class="cls-2" x="32.77" y="86.5" width="4.36" height="4.36"></rect><rect class="cls-2" x="32.77" y="96.74" width="4.36" height="4.36"></rect><rect class="cls-2" x="32.77" y="121.8" width="4.36" height="4.36"></rect><rect class="cls-2" x="32.77" y="106.98" width="4.36" height="4.36"></rect><path class="cls-2" d="M49.82,121.8h50.25V56.88H80L80.33,39H37.13V121.8H49.82Zm8.72-10.46H54.18V107h4.36Zm0-10.24H54.18V96.74h4.36Zm0-10.24H54.18V86.5h4.36ZM54.18,80.62V76.26H91.75v4.36ZM91.75,86.5v4.36H62.9V86.5ZM67.26,111.34H62.9V107h4.36Zm0-10.24H62.9V96.74h4.36ZM76,111.34H71.62V107H76ZM91.75,101.1H71.62V96.74H91.75ZM45.46,54.7H72.33v4.36H45.46Zm0,11.32H91.75v4.36H45.46Zm0,10.24h4.36v4.36H45.46Zm0,10.24h4.36v4.36H45.46Zm0,10.24h4.36v4.36H45.46Zm0,10.24h4.36v4.36H45.46Z"></path><rect class="cls-3" x="45.46" y="54.7" width="26.87" height="4.36"></rect><rect class="cls-3" x="45.46" y="66.02" width="46.28" height="4.36"></rect><rect class="cls-3" x="54.18" y="76.26" width="37.56" height="4.36"></rect><rect class="cls-3" x="45.46" y="76.26" width="4.36" height="4.36"></rect><rect class="cls-3" x="54.18" y="86.5" width="4.36" height="4.36"></rect><rect class="cls-3" x="45.46" y="86.5" width="4.36" height="4.36"></rect><rect class="cls-3" x="62.9" y="96.74" width="4.36" height="4.36"></rect><rect class="cls-3" x="54.18" y="96.74" width="4.36" height="4.36"></rect><rect class="cls-3" x="45.46" y="96.74" width="4.36" height="4.36"></rect><rect class="cls-3" x="62.9" y="86.5" width="28.85" height="4.36"></rect><rect class="cls-3" x="71.62" y="96.74" width="20.13" height="4.36"></rect><rect class="cls-3" x="62.9" y="106.98" width="4.36" height="4.36"></rect><rect class="cls-3" x="71.62" y="106.98" width="4.36" height="4.36"></rect><rect class="cls-3" x="54.18" y="106.98" width="4.36" height="4.36"></rect><rect class="cls-3" x="45.46" y="106.98" width="4.36" height="4.36"></rect></g></g></svg> 